<svg width="200" height="49" viewBox="0 0 200 49" fill="none" xmlns="http://www.w3.org/2000/svg">
<path d="M109.69 35.3353H101.042C100.567 35.3353 100.194 34.9641 100.194 34.4917V12.5582C100.194 12.0858 100.567 11.7147 101.042 11.7147H108.808C113.658 11.7147 116.269 13.7393 116.269 17.856V19.037C116.269 20.6567 115.557 22.5464 113.895 23.4912C115.591 24.1998 116.846 26.0895 116.846 28.2491V29.4976C116.846 32.8382 114.574 35.3353 109.69 35.3353ZM103.721 14.7516V22.3102H109.656C111.521 22.3102 112.742 21.2304 112.742 18.6996V18.3284C112.742 15.6289 111.521 14.7516 108.876 14.7516H103.721ZM103.721 25.1447V32.3321H109.622C112.2 32.3321 113.285 30.9823 113.285 29.0927V28.5865C113.285 26.4944 112.132 25.1447 109.995 25.1447H103.721ZM136.744 35.3353C137.219 35.3353 137.626 34.9641 137.626 34.4917V33.1757C137.626 32.7033 137.219 32.3321 136.744 32.3321H126.773V12.5582C126.773 12.0858 126.4 11.7147 125.925 11.7147H124.094C123.619 11.7147 123.246 12.0858 123.246 12.5582V34.4917C123.246 34.9641 123.619 35.3353 124.094 35.3353H136.744ZM150.368 35.8077C145.586 35.8077 141.72 32.9395 141.72 28.3166V18.7334C141.72 14.0767 145.586 11.2422 150.368 11.2422C155.184 11.2422 159.05 14.0767 159.05 18.7334V28.3166C159.05 32.9395 155.184 35.8077 150.368 35.8077ZM150.368 14.2792C147.553 14.2792 145.281 15.9664 145.281 19.2058V27.8442C145.281 31.0836 147.553 32.7707 150.368 32.7707C153.217 32.7707 155.489 31.0836 155.489 27.8442V19.2058C155.489 15.9664 153.217 14.2792 150.368 14.2792ZM172.369 35.3353C172.844 35.3353 173.217 34.9641 173.217 34.4917V14.7178H178.983C179.457 14.7178 179.864 14.3467 179.864 13.8743V12.5582C179.864 12.0858 179.457 11.7147 178.983 11.7147H163.924C163.45 11.7147 163.043 12.0858 163.043 12.5582V13.8743C163.043 14.3467 163.45 14.7178 163.924 14.7178H169.69V34.4917C169.69 34.9641 170.063 35.3353 170.538 35.3353H172.369ZM43.8566 0C50.8631 0 57.1806 2.91064 61.6348 7.5733L63.8419 5.47745H69.3933L73.0018 8.21617L66.3314 14.6451C67.5877 17.5483 68.283 20.7444 68.283 24.1008C68.283 37.4113 57.3469 48.2015 43.8566 48.2015C37.102 48.2015 30.9878 45.4964 26.566 41.1243L23.8713 43.5457H18.5974L15.5441 40.2592L21.6994 34.2589C20.2432 31.172 19.4301 27.7301 19.4301 24.1008C19.4301 10.7903 30.3662 0 43.8566 0ZM58.696 22.0036L49.1305 31.2215H45.7996L43.0239 29.5782H39.4154L33.5553 34.8438C36.2411 37.3518 39.8668 38.8899 43.8566 38.8899C52.1348 38.8899 58.8456 32.2686 58.8456 24.1008C58.8456 23.3889 58.7946 22.6887 58.696 22.0036ZM199.118 11.7147C199.593 11.7147 200 12.0858 200 12.5582V13.8743C200 14.3467 199.593 14.7178 199.118 14.7178H193.353V34.4917C193.353 34.9641 192.98 35.3353 192.505 35.3353H190.673C190.199 35.3353 189.826 34.9641 189.826 34.4917V14.7178H184.06C183.585 14.7178 183.178 14.3467 183.178 13.8743V12.5582C183.178 12.0858 183.585 11.7147 184.06 11.7147H199.118ZM11.1473 11.54C11.4582 11.2771 11.9912 11.54 11.9912 11.9344V15.0018C11.9912 15.7029 11.6359 16.404 11.1473 16.8422L4.1747 23.1084L11.1029 29.3746C11.6359 29.8128 11.9912 30.5139 11.9912 31.215V34.2824C11.9912 34.6767 11.4582 34.9397 11.1473 34.6767L0.843823 25.4308C0.355294 25.0364 0 24.2915 0 23.6342V22.6264C0 21.9691 0.355294 21.2241 0.843823 20.7859L11.1473 11.54ZM75.1738 11.9344C75.1738 11.54 75.7067 11.2771 76.0176 11.54L86.3212 20.7859C86.8097 21.2241 87.165 21.9691 87.165 22.6264V23.6342C87.165 24.2915 86.8097 25.0364 86.3212 25.4308L76.0176 34.6767C75.7067 34.9397 75.1738 34.6767 75.1738 34.2824V31.215C75.1738 30.5139 75.5291 29.8128 76.062 29.3746L82.9903 23.1084L76.0176 16.8422C75.5291 16.404 75.1738 15.7029 75.1738 15.0018V11.9344ZM43.8566 9.31166C35.5784 9.31166 28.8676 15.933 28.8676 24.1008C28.8676 25.0904 28.9661 26.0573 29.154 26.9924L38.5827 17.8017H43.0239L45.7996 19.4449H49.1305L54.8333 14.0299C52.0966 11.1273 48.1915 9.31166 43.8566 9.31166Z" fill="white"/>
</svg>
